<svg xmlns="http://www.w3.org/2000/svg" viewBox="0 0 180 180">
  <rect width="180" height="180" rx="40" fill="#111827"/>
  <path d="M89 45c28 0 51 23 51 51s-23 51-51 51-51-23-51-51 23-51 51-51Z" fill="#ef4444"/>
  <path d="M89 57c21.4 0 39 17.6 39 39s-17.6 39-39 39-39-17.6-39-39 17.6-39 39-39Z" fill="#f87171"/>
  <path d="M89 69c14.8 0 27 12.2 27 27s-12.2 27-27 27-27-12.2-27-27 12.2-27 27-27Z" fill="#ef4444"/>
  <path d="M79 44c-1.2-9 3.4-17.5 11.8-23.2 6.8 6.8 8.8 16.7 5.1 25.2L79 44Z" fill="#22c55e"/>
  <path d="M90 43c5.1-12.4 17.5-19 30.5-16.4-2.8 13-14.7 20.6-30.5 16.4Z" fill="#16a34a"/>
  <path d="M77.5 41.8c-10.7-4.5-17.5-13.8-16.9-24.8 12.1 1.1 20.3 9 22.9 22.3l-6 2.5Z" fill="#22c55e"/>
  <path d="M89 23.5c3.1 7.6 3.4 16.4.6 24.8" fill="none" stroke="#14532d" stroke-width="6" stroke-linecap="round"/>
  <path d="M62 87h54" fill="none" stroke="#fecaca" stroke-width="9" stroke-linecap="round" opacity=".8"/>
  <path d="M68 107h42" fill="none" stroke="#fecaca" stroke-width="9" stroke-linecap="round" opacity=".55"/>
</svg>
