<svg xmlns="http://www.w3.org/2000/svg" viewBox="0 0 64 64">
  <rect width="64" height="64" rx="16" fill="#111827"/>
  <path d="M31.5 16c9.9 0 18 8.1 18 18s-8.1 18-18 18-18-8.1-18-18 8.1-18 18-18Z" fill="#ef4444"/>
  <path d="M31.5 20c7.7 0 14 6.3 14 14s-6.3 14-14 14-14-6.3-14-14 6.3-14 14-14Z" fill="#f87171"/>
  <path d="M31.5 24c5.5 0 10 4.5 10 10s-4.5 10-10 10-10-4.5-10-10 4.5-10 10-10Z" fill="#ef4444"/>
  <path d="M28 16c-.4-3.2 1.2-6.2 4.2-8.2 2.4 2.4 3.1 5.9 1.8 8.9L28 16Z" fill="#22c55e"/>
  <path d="M32 15.5c1.8-4.4 6.2-6.7 10.8-5.8-1 4.6-5.2 7.3-10.8 5.8Z" fill="#16a34a"/>
  <path d="M27.5 15.2c-3.8-1.6-6.2-4.9-6-8.8 4.3.4 7.2 3.2 8.1 7.9l-2.1.9Z" fill="#22c55e"/>
  <path d="M31.5 8.5c1.1 2.7 1.2 5.8.2 8.8" fill="none" stroke="#14532d" stroke-width="2" stroke-linecap="round"/>
  <path d="M22 31h19" fill="none" stroke="#fecaca" stroke-width="3" stroke-linecap="round" opacity=".8"/>
  <path d="M24 38h15" fill="none" stroke="#fecaca" stroke-width="3" stroke-linecap="round" opacity=".55"/>
</svg>
